<svg width="96.9565" height="96.9563" x="895" y="453.9385" version="1.1" preserveAspectRatio="none" viewBox="0 0 96.9565 96.9563">
  <defs><rect x="0" y="0" width="96.9565" height="96.9563" rx="150px" ry="150px" id="id-5kldYRpCP"></rect></defs><use class="a5kldYRpCPfillColor shapeStroke-str" style="stroke-width:0;" xlink:href="#id-5kldYRpCP"></use>
</svg>
</g><g opacity="1" transform="rotate(0 920.8628 471.2521)">
<svg width="45.231" height="62.329" x="920.8628" y="471.2521" version="1.1" preserveAspectRatio="none" viewBox="24.256567001342773 5.212855815887451 65.31787872314453 90.00910186767578">
  <g transform="matrix(1 0 0 1 0 0)" class="aIptOCySncolors-0"><path d="M25.8326015,95.2219467C32.8372002,73.3325729,50.173584,50.0422859,50.173584,50.0422859  c-13.22118,3.5023003-25.917017,7.3548279-25.917017,7.3548279c8.4823895-23.8690491,18.1869678-38.4050064,25.0459728-46.5491791  c0,0,15.0553551-3.8839293,40.2719078-5.6350789c-14.0091934,8.2304039-33.271843,34.6727638-33.271843,34.6727638  s8.0552902-3.5023003,25.7419052-7.0045967c-17.8617325,10.506897-56.1243515,62.3409271-56.1243515,62.3409271H25.8326015z"></path></g>
</svg>