<svg viewBox="895 453.9385 380 96.9563" width="5000" height="1275.7407894736841" xmlns="http://www.w3.org/2000/svg" xmlns:xlink="http://www.w3.org/1999/xlink" preserveAspectRatio="none"><defs></defs><style>.a5kldYRpCPfillColor {fill:#FF784C;fill-opacity:1;}.aD-YM9nyY4color {fill:#EFEFEF;fill-opacity:1;}.aD-YM9nyY4strokeColor-str {stroke:#3661B4;stroke-opacity:1;}.aD6z1nYkhcolor {fill:#EFEFEF;fill-opacity:1;}.aIptOCySncolors-0 {fill:#739FFB;fill-opacity:1;}.aIptOCySncolors-3 {fill:#C02F00;fill-opacity:1;}.aIptOCySncolors-4 {fill:#1D2C49;fill-opacity:1;}.aIptOCySncolors-5 {fill:#FDA645;fill-opacity:1;}.aIptOCySncolors-6 {fill:#848383;fill-opacity:1;}.aIptOCySncolors-7 {fill:#CDDDFF;fill-opacity:1;}.icon2 {fill:#EFEFEF;fill-opacity:1;}.icon3 {fill:#3661B4;fill-opacity:1;}.icon3-str {stroke:#3661B4;stroke-opacity:1;}.shapeStroke-str {stroke:#EFEFEF;stroke-opacity:1;}</style><g opacity="1" transform="rotate(0 895 453.9385)">
<svg width="96.9565" height="96.9563" x="895" y="453.9385" version="1.1" preserveAspectRatio="none" viewBox="0 0 96.9565 96.9563">
  <defs><rect x="0" y="0" width="96.9565" height="96.9563" rx="150px" ry="150px" id="id-5kldYRpCP"></rect></defs><use class="a5kldYRpCPfillColor shapeStroke-str" style="stroke-width:0;" xlink:href="#id-5kldYRpCP"></use>
</svg>
</g><g opacity="1" transform="rotate(0 920.8628 471.2521)">
<svg width="45.231" height="62.329" x="920.8628" y="471.2521" version="1.1" preserveAspectRatio="none" viewBox="24.256567001342773 5.212855815887451 65.31787872314453 90.00910186767578">
  <g transform="matrix(1 0 0 1 0 0)" class="aIptOCySncolors-0"><path d="M25.8326015,95.2219467C32.8372002,73.3325729,50.173584,50.0422859,50.173584,50.0422859  c-13.22118,3.5023003-25.917017,7.3548279-25.917017,7.3548279c8.4823895-23.8690491,18.1869678-38.4050064,25.0459728-46.5491791  c0,0,15.0553551-3.8839293,40.2719078-5.6350789c-14.0091934,8.2304039-33.271843,34.6727638-33.271843,34.6727638  s8.0552902-3.5023003,25.7419052-7.0045967c-17.8617325,10.506897-56.1243515,62.3409271-56.1243515,62.3409271H25.8326015z"></path></g>
</svg>
</g><g opacity="1" transform="rotate(0 1008.5776 453.9385)">
<svg width="266.4224" height="69.2545" x="1008.5776" y="453.9385" version="1.1" preserveAspectRatio="none" viewBox="3.32 -30 270.52 70.32">
  <g transform="matrix(1 0 0 1 0 0)" class="aD6z1nYkhcolor"><path id="id-D6z1nYkh20" d="M23.88-14.56Q26.28-13.80 27.64-12.02Q29-10.24 29-7.64L29-7.64Q29-3.96 26.14-1.98Q23.28 0 17.80 0L17.80 0L3.32 0L3.32-28L17-28Q22.12-28 24.86-26.04Q27.60-24.08 27.60-20.72L27.60-20.72Q27.60-18.68 26.62-17.08Q25.64-15.48 23.88-14.56L23.88-14.56ZM16.20-23.12L9.76-23.12L9.76-16.52L16.20-16.52Q18.60-16.52 19.84-17.36Q21.08-18.20 21.08-19.84L21.08-19.84Q21.08-21.48 19.84-22.30Q18.60-23.12 16.20-23.12L16.20-23.12ZM17.32-4.88Q19.88-4.88 21.18-5.72Q22.48-6.56 22.48-8.32L22.48-8.32Q22.48-11.80 17.32-11.80L17.32-11.80L9.76-11.80L9.76-4.88L17.32-4.88Z M39.44-18.68Q40.56-20.24 42.46-21.04Q44.36-21.84 46.84-21.84L46.84-21.84L46.84-16.08Q45.80-16.16 45.44-16.16L45.44-16.16Q42.76-16.16 41.24-14.66Q39.72-13.16 39.72-10.16L39.72-10.16L39.72 0L33.48 0L33.48-21.52L39.44-21.52L39.44-18.68Z M61.20-4.68Q62.88-4.68 64.18-5.18Q65.48-5.68 66.60-6.76L66.60-6.76L69.92-3.16Q66.88 0.32 61.04 0.32L61.04 0.32Q57.40 0.32 54.60-1.10Q51.80-2.52 50.28-5.04Q48.76-7.56 48.76-10.76L48.76-10.76Q48.76-13.92 50.26-16.46Q51.76-19 54.38-20.42Q57-21.84 60.28-21.84L60.28-21.84Q63.36-21.84 65.88-20.54Q68.40-19.24 69.90-16.78Q71.40-14.32 71.40-10.96L71.40-10.96L55.48-7.88Q56.16-6.28 57.62-5.48Q59.08-4.68 61.20-4.68L61.20-4.68ZM60.28-17.12Q57.92-17.12 56.44-15.60Q54.96-14.08 54.88-11.40L54.88-11.40L65.36-13.44Q64.92-15.12 63.56-16.12Q62.20-17.12 60.28-17.12L60.28-17.12Z M91.20-21.52L97.44-21.52L97.44 0L91.48 0L91.48-2.48Q89.16 0.32 84.76 0.32L84.76 0.32Q81.72 0.32 79.26-1.04Q76.80-2.40 75.40-4.92Q74-7.44 74-10.76L74-10.76Q74-14.08 75.40-16.60Q76.80-19.12 79.26-20.48Q81.72-21.84 84.76-21.84L84.76-21.84Q88.88-21.84 91.20-19.24L91.20-19.24L91.20-21.52ZM85.84-4.80Q88.20-4.80 89.76-6.42Q91.32-8.04 91.32-10.76L91.32-10.76Q91.32-13.48 89.76-15.10Q88.20-16.72 85.84-16.72L85.84-16.72Q83.44-16.72 81.88-15.10Q80.32-13.48 80.32-10.76L80.32-10.76Q80.32-8.04 81.88-6.42Q83.44-4.80 85.84-4.80L85.84-4.80Z M119.24 0L112.44-8.44L109.44-5.48L109.44 0L103.20 0L103.20-29.68L109.44-29.68L109.44-12.88L118.56-21.52L126-21.52L117.04-12.40L126.80 0L119.24 0Z M140.92-5.44L142.56-1.04Q141.64-0.36 140.30-0.02Q138.96 0.32 137.52 0.32L137.52 0.32Q133.64 0.32 131.56-1.64Q129.48-3.60 129.48-7.40L129.48-7.40L129.48-26.28L135.72-26.28L135.72-21.04L141.04-21.04L141.04-16.24L135.72-16.24L135.72-7.48Q135.72-6.12 136.40-5.38Q137.08-4.64 138.36-4.64L138.36-4.64Q139.80-4.64 140.92-5.44L140.92-5.44Z M159.16-21.84Q163.16-21.84 165.62-19.44Q168.08-17.04 168.08-12.32L168.08-12.32L168.08 0L161.84 0L161.84-11.36Q161.84-13.92 160.72-15.18Q159.60-16.44 157.48-16.44L157.48-16.44Q155.12-16.44 153.72-14.98Q152.32-13.52 152.32-10.64L152.32-10.64L152.32 0L146.08 0L146.08-29.68L152.32-29.68L152.32-19.28Q153.56-20.52 155.32-21.18Q157.08-21.84 159.16-21.84L159.16-21.84Z M179.68-18.68Q180.80-20.24 182.70-21.04Q184.60-21.84 187.08-21.84L187.08-21.84L187.08-16.08Q186.04-16.16 185.68-16.16L185.68-16.16Q183.00-16.16 181.48-14.66Q179.96-13.16 179.96-10.16L179.96-10.16L179.96 0L173.72 0L173.72-21.52L179.68-21.52L179.68-18.68Z M206.40-21.52L212.64-21.52L212.64 0L206.72 0L206.72-2.56Q205.48-1.16 203.76-0.42Q202.04 0.32 200.04 0.32L200.04 0.32Q195.80 0.32 193.32-2.12Q190.84-4.56 190.84-9.36L190.84-9.36L190.84-21.52L197.08-21.52L197.08-10.28Q197.08-5.08 201.44-5.08L201.44-5.08Q203.68-5.08 205.04-6.54Q206.40-8 206.40-10.88L206.40-10.88L206.40-21.52ZM197.68-24.48Q196.48-24.48 195.68-25.26Q194.88-26.04 194.88-27.24L194.88-27.24Q194.88-28.44 195.68-29.22Q196.48-30 197.68-30L197.68-30Q198.88-30 199.66-29.22Q200.44-28.44 200.44-27.24L200.44-27.24Q200.44-26.04 199.66-25.26Q198.88-24.48 197.68-24.48L197.68-24.48ZM205.76-24.48Q204.56-24.48 203.78-25.26Q203.00-26.04 203.00-27.24L203.00-27.24Q203.00-28.44 203.78-29.22Q204.56-30 205.76-30L205.76-30Q206.96-30 207.76-29.22Q208.56-28.44 208.56-27.24L208.56-27.24Q208.56-26.04 207.76-25.26Q206.96-24.48 205.76-24.48L205.76-24.48Z M15.44 12Q19.16 12 21.90 13.24Q24.64 14.48 26.12 16.76Q27.60 19.04 27.60 22.16L27.60 22.16Q27.60 25.24 26.12 27.54Q24.64 29.84 21.90 31.06Q19.16 32.28 15.44 32.28L15.44 32.28L9.80 32.28L9.80 40L3.32 40L3.32 12L15.44 12ZM15.08 27Q18 27 19.52 25.74Q21.04 24.48 21.04 22.16L21.04 22.16Q21.04 19.80 19.52 18.54Q18 17.28 15.08 17.28L15.08 17.28L9.80 17.28L9.80 27L15.08 27Z M42.56 35.32Q44.24 35.32 45.54 34.82Q46.84 34.32 47.96 33.24L47.96 33.24L51.28 36.84Q48.24 40.32 42.40 40.32L42.40 40.32Q38.76 40.32 35.96 38.90Q33.16 37.48 31.64 34.96Q30.12 32.44 30.12 29.24L30.12 29.24Q30.12 26.08 31.62 23.54Q33.12 21 35.74 19.58Q38.36 18.16 41.64 18.16L41.64 18.16Q44.72 18.16 47.24 19.46Q49.76 20.76 51.26 23.22Q52.76 25.68 52.76 29.04L52.76 29.04L36.84 32.12Q37.52 33.72 38.98 34.52Q40.44 35.32 42.56 35.32L42.56 35.32ZM41.64 22.88Q39.28 22.88 37.80 24.40Q36.32 25.92 36.24 28.60L36.24 28.60L46.72 26.56Q46.28 24.88 44.92 23.88Q43.56 22.88 41.64 22.88L41.64 22.88Z M62.92 21.32Q64.04 19.76 65.94 18.96Q67.84 18.16 70.32 18.16L70.32 18.16L70.32 23.92Q69.28 23.84 68.92 23.84L68.92 23.84Q66.24 23.84 64.72 25.34Q63.20 26.84 63.20 29.84L63.20 29.84L63.20 40L56.96 40L56.96 18.48L62.92 18.48L62.92 21.32Z M80.12 18.04L80.12 18.96L85.64 18.96L85.64 23.76L80.28 23.76L80.28 40L74.04 40L74.04 18Q74.04 14.32 76.22 12.16Q78.40 10 82.36 10L82.36 10Q83.76 10 85.02 10.30Q86.28 10.60 87.12 11.16L87.12 11.16L85.48 15.68Q84.40 14.92 82.96 14.92L82.96 14.92Q80.12 14.92 80.12 18.04L80.12 18.04Z M98.72 40.32Q95.32 40.32 92.62 38.90Q89.92 37.48 88.40 34.96Q86.88 32.44 86.88 29.24L86.88 29.24Q86.88 26.04 88.40 23.52Q89.92 21 92.62 19.58Q95.32 18.16 98.72 18.16L98.72 18.16Q102.12 18.16 104.80 19.58Q107.48 21 109 23.52Q110.52 26.04 110.52 29.24L110.52 29.24Q110.52 32.44 109 34.96Q107.48 37.48 104.80 38.90Q102.12 40.32 98.72 40.32L98.72 40.32ZM98.72 35.20Q101.12 35.20 102.66 33.58Q104.20 31.96 104.20 29.24L104.20 29.24Q104.20 26.52 102.66 24.90Q101.12 23.28 98.72 23.28L98.72 23.28Q96.32 23.28 94.76 24.90Q93.20 26.52 93.20 29.24L93.20 29.24Q93.20 31.96 94.76 33.58Q96.32 35.20 98.72 35.20L98.72 35.20Z M120.64 21.32Q121.76 19.76 123.66 18.96Q125.56 18.16 128.04 18.16L128.04 18.16L128.04 23.92Q127 23.84 126.64 23.84L126.64 23.84Q123.96 23.84 122.44 25.34Q120.92 26.84 120.92 29.84L120.92 29.84L120.92 40L114.68 40L114.68 18.48L120.64 18.48L120.64 21.32Z M159.32 18.16Q163.36 18.16 165.74 20.54Q168.12 22.92 168.12 27.68L168.12 27.68L168.12 40L161.88 40L161.88 28.64Q161.88 26.08 160.82 24.82Q159.76 23.56 157.80 23.56L157.80 23.56Q155.60 23.56 154.32 24.98Q153.04 26.40 153.04 29.20L153.04 29.20L153.04 40L146.80 40L146.80 28.64Q146.80 23.56 142.72 23.56L142.72 23.56Q140.56 23.56 139.28 24.98Q138 26.40 138 29.20L138 29.20L138 40L131.76 40L131.76 18.48L137.72 18.48L137.72 20.96Q138.92 19.60 140.66 18.88Q142.40 18.16 144.48 18.16L144.48 18.16Q146.76 18.16 148.60 19.06Q150.44 19.96 151.56 21.68L151.56 21.68Q152.88 20 154.90 19.08Q156.92 18.16 159.32 18.16L159.32 18.16Z M189.56 18.48L195.80 18.48L195.80 40L189.84 40L189.84 37.52Q187.52 40.32 183.12 40.32L183.12 40.32Q180.08 40.32 177.62 38.96Q175.16 37.60 173.76 35.08Q172.36 32.56 172.36 29.24L172.36 29.24Q172.36 25.92 173.76 23.40Q175.16 20.88 177.62 19.52Q180.08 18.16 183.12 18.16L183.12 18.16Q187.24 18.16 189.56 20.76L189.56 20.76L189.56 18.48ZM184.20 35.20Q186.56 35.20 188.12 33.58Q189.68 31.96 189.68 29.24L189.68 29.24Q189.68 26.52 188.12 24.90Q186.56 23.28 184.20 23.28L184.20 23.28Q181.80 23.28 180.24 24.90Q178.68 26.52 178.68 29.24L178.68 29.24Q178.68 31.96 180.24 33.58Q181.80 35.20 184.20 35.20L184.20 35.20Z M214.64 18.16Q218.64 18.16 221.10 20.56Q223.56 22.96 223.56 27.68L223.56 27.68L223.56 40L217.32 40L217.32 28.64Q217.32 26.08 216.20 24.82Q215.08 23.56 212.96 23.56L212.96 23.56Q210.60 23.56 209.20 25.02Q207.80 26.48 207.80 29.36L207.80 29.36L207.80 40L201.56 40L201.56 18.48L207.52 18.48L207.52 21Q208.76 19.64 210.60 18.90Q212.44 18.16 214.64 18.16L214.64 18.16Z M239.84 40.32Q236.40 40.32 233.66 38.90Q230.92 37.48 229.38 34.96Q227.84 32.44 227.84 29.24L227.84 29.24Q227.84 26.04 229.38 23.52Q230.92 21 233.66 19.58Q236.40 18.16 239.84 18.16L239.84 18.16Q243.24 18.16 245.78 19.58Q248.32 21 249.48 23.64L249.48 23.64L244.64 26.24Q242.96 23.28 239.80 23.28L239.80 23.28Q237.36 23.28 235.76 24.88Q234.16 26.48 234.16 29.24L234.16 29.24Q234.16 32 235.76 33.60Q237.36 35.20 239.80 35.20L239.80 35.20Q243 35.20 244.64 32.24L244.64 32.24L249.48 34.88Q248.32 37.44 245.78 38.88Q243.24 40.32 239.84 40.32L239.84 40.32Z M263.64 35.32Q265.32 35.32 266.62 34.82Q267.92 34.32 269.04 33.24L269.04 33.24L272.36 36.84Q269.32 40.32 263.48 40.32L263.48 40.32Q259.84 40.32 257.04 38.90Q254.24 37.48 252.72 34.96Q251.20 32.44 251.20 29.24L251.20 29.24Q251.20 26.08 252.70 23.54Q254.20 21 256.82 19.58Q259.44 18.16 262.72 18.16L262.72 18.16Q265.80 18.16 268.32 19.46Q270.84 20.76 272.34 23.22Q273.84 25.68 273.84 29.04L273.84 29.04L257.92 32.12Q258.60 33.72 260.06 34.52Q261.52 35.32 263.64 35.32L263.64 35.32ZM262.72 22.88Q260.36 22.88 258.88 24.40Q257.40 25.92 257.32 28.60L257.32 28.60L267.80 26.56Q267.36 24.88 266 23.88Q264.64 22.88 262.72 22.88L262.72 22.88Z"/></g>
</svg>
</g><g opacity="1" transform="rotate(0 1008.5776 537.0439)">
<svg width="164.2416" height="13.8509" x="1008.5776" y="537.0439" version="1.1" preserveAspectRatio="none" viewBox="4.2 -30.28 362.04 30.520000000000003">
  <g transform="matrix(1 0 0 1 0 0)" class="aD-YM9nyY4color"><path id="id-D-YM9nyY416" d="M27.28 0L22.92 0L16.88-8.60Q15.76-8.52 15.12-8.52L15.12-8.52L8.20-8.52L8.20 0L4.20 0L4.20-28L15.12-28Q20.56-28 23.68-25.40Q26.80-22.80 26.80-18.24L26.80-18.24Q26.80-15 25.20-12.72Q23.60-10.44 20.64-9.40L20.64-9.40L27.28 0ZM15-11.92Q18.80-11.92 20.80-13.56Q22.80-15.20 22.80-18.24L22.80-18.24Q22.80-21.28 20.80-22.90Q18.80-24.52 15-24.52L15-24.52L8.20-24.52L8.20-11.92L15-11.92Z M53.08-10.48Q53.08-10.04 53-9.32L53-9.32L35.80-9.32Q36.16-6.52 38.26-4.82Q40.36-3.12 43.48-3.12L43.48-3.12Q47.28-3.12 49.60-5.68L49.60-5.68L51.72-3.20Q50.28-1.52 48.14-0.64Q46 0.24 43.36 0.24L43.36 0.24Q40 0.24 37.40-1.14Q34.80-2.52 33.38-5Q31.96-7.48 31.96-10.60L31.96-10.60Q31.96-13.68 33.34-16.16Q34.72-18.64 37.14-20.02Q39.56-21.40 42.60-21.40L42.60-21.40Q45.64-21.40 48.02-20.02Q50.40-18.64 51.74-16.16Q53.08-13.68 53.08-10.48L53.08-10.48ZM42.60-18.16Q39.84-18.16 37.98-16.48Q36.12-14.80 35.80-12.08L35.80-12.08L49.40-12.08Q49.08-14.76 47.22-16.46Q45.36-18.16 42.60-18.16L42.60-18.16Z M87.84-21.20L91.28-21.20L83.36 0L79.68 0L73.56-16.08L67.36 0L63.68 0L55.80-21.20L59.44-21.20L65.60-4.32L72.00-21.20L75.24-21.20L81.52-4.24L87.84-21.20Z M100.04-17.64Q101.04-19.48 103.00-20.44Q104.96-21.40 107.76-21.40L107.76-21.40L107.76-17.68Q107.44-17.72 106.88-17.72L106.88-17.72Q103.76-17.72 101.98-15.86Q100.20-14 100.20-10.56L100.20-10.56L100.20 0L96.36 0L96.36-21.20L100.04-21.20L100.04-17.64Z M113.68 0L113.68-21.20L117.52-21.20L117.52 0L113.68 0ZM115.60-25.28Q114.48-25.28 113.74-26Q113-26.72 113-27.76L113-27.76Q113-28.80 113.74-29.54Q114.48-30.28 115.60-30.28L115.60-30.28Q116.72-30.28 117.46-29.58Q118.20-28.88 118.20-27.84L118.20-27.84Q118.20-26.76 117.46-26.02Q116.72-25.28 115.60-25.28L115.60-25.28Z M136.76-4L137.96-1.24Q137.12-0.52 135.88-0.14Q134.64 0.24 133.32 0.24L133.32 0.24Q130.12 0.24 128.36-1.48Q126.60-3.20 126.60-6.40L126.60-6.40L126.60-18.04L123-18.04L123-21.20L126.60-21.20L126.60-25.84L130.44-25.84L130.44-21.20L136.52-21.20L136.52-18.04L130.44-18.04L130.44-6.56Q130.44-4.84 131.30-3.92Q132.16-3 133.76-3L133.76-3Q135.52-3 136.76-4L136.76-4Z M162.24-10.48Q162.24-10.04 162.16-9.32L162.16-9.32L144.96-9.32Q145.32-6.52 147.42-4.82Q149.52-3.12 152.64-3.12L152.64-3.12Q156.44-3.12 158.76-5.68L158.76-5.68L160.88-3.20Q159.44-1.52 157.30-0.64Q155.16 0.24 152.52 0.24L152.52 0.24Q149.16 0.24 146.56-1.14Q143.96-2.52 142.54-5Q141.12-7.48 141.12-10.60L141.12-10.60Q141.12-13.68 142.50-16.16Q143.88-18.64 146.30-20.02Q148.72-21.40 151.76-21.40L151.76-21.40Q154.80-21.40 157.18-20.02Q159.56-18.64 160.90-16.16Q162.24-13.68 162.24-10.48L162.24-10.48ZM151.76-18.16Q149-18.16 147.14-16.48Q145.28-14.80 144.96-12.08L144.96-12.08L158.56-12.08Q158.24-14.76 156.38-16.46Q154.52-18.16 151.76-18.16L151.76-18.16Z M203.12-28L192.00-9.68L192.00 0L188.04 0L188.04-9.76L176.92-28L181.20-28L190.16-13.24L199.16-28L203.12-28Z M214.48 0.24Q211.32 0.24 208.80-1.16Q206.28-2.56 204.86-5.02Q203.44-7.48 203.44-10.60L203.44-10.60Q203.44-13.72 204.86-16.18Q206.28-18.64 208.80-20.02Q211.32-21.40 214.48-21.40L214.48-21.40Q217.64-21.40 220.14-20.02Q222.64-18.64 224.06-16.18Q225.48-13.72 225.48-10.60L225.48-10.60Q225.48-7.48 224.06-5.02Q222.64-2.56 220.14-1.16Q217.64 0.24 214.48 0.24L214.48 0.24ZM214.48-3.12Q216.52-3.12 218.14-4.06Q219.76-5 220.68-6.70Q221.60-8.40 221.60-10.60L221.60-10.60Q221.60-12.80 220.68-14.50Q219.76-16.20 218.14-17.12Q216.52-18.04 214.48-18.04L214.48-18.04Q212.44-18.04 210.82-17.12Q209.20-16.20 208.26-14.50Q207.32-12.80 207.32-10.60L207.32-10.60Q207.32-8.40 208.26-6.70Q209.20-5 210.82-4.06Q212.44-3.12 214.48-3.12L214.48-3.12Z M247.92-21.20L251.76-21.20L251.76 0L248.12 0L248.12-3.20Q246.96-1.56 245.06-0.66Q243.16 0.24 240.92 0.24L240.92 0.24Q236.68 0.24 234.24-2.10Q231.80-4.44 231.80-9L231.80-9L231.80-21.20L235.64-21.20L235.64-9.44Q235.64-6.36 237.12-4.78Q238.60-3.20 241.36-3.20L241.36-3.20Q244.40-3.20 246.16-5.04Q247.92-6.88 247.92-10.24L247.92-10.24L247.92-21.20Z M263.96-17.64Q264.96-19.48 266.92-20.44Q268.88-21.40 271.68-21.40L271.68-21.40L271.68-17.68Q271.36-17.72 270.80-17.72L270.80-17.72Q267.68-17.72 265.90-15.86Q264.12-14 264.12-10.56L264.12-10.56L264.12 0L260.28 0L260.28-21.20L263.96-21.20L263.96-17.64Z M301.32-28Q306.76-28 309.88-25.40Q313.00-22.80 313.00-18.24L313.00-18.24Q313.00-13.68 309.88-11.08Q306.76-8.48 301.32-8.48L301.32-8.48L294.40-8.48L294.40 0L290.40 0L290.40-28L301.32-28ZM301.20-11.96Q305.00-11.96 307.00-13.58Q309.00-15.20 309.00-18.24L309.00-18.24Q309.00-21.28 307.00-22.90Q305.00-24.52 301.20-24.52L301.20-24.52L294.40-24.52L294.40-11.96L301.20-11.96Z M338.92-14.52Q341.36-13.84 342.76-12.06Q344.16-10.28 344.16-7.56L344.16-7.56Q344.16-3.92 341.42-1.96Q338.68 0 333.44 0L333.44 0L320.08 0L320.08-28L332.64-28Q337.44-28 340.06-26.08Q342.68-24.16 342.68-20.76L342.68-20.76Q342.68-18.56 341.66-16.96Q340.64-15.36 338.92-14.52L338.92-14.52ZM332.28-24.76L324.08-24.76L324.08-15.80L332.28-15.80Q335.36-15.80 337.02-16.94Q338.68-18.08 338.68-20.28L338.68-20.28Q338.68-22.48 337.02-23.62Q335.36-24.76 332.28-24.76L332.28-24.76ZM333.28-3.24Q336.68-3.24 338.40-4.36Q340.12-5.48 340.12-7.88L340.12-7.88Q340.12-12.56 333.28-12.56L333.28-12.56L324.08-12.56L324.08-3.24L333.28-3.24Z M357.08 0.24Q354.48 0.24 352.08-0.46Q349.68-1.16 348.32-2.24L348.32-2.24L349.92-5.28Q351.32-4.28 353.32-3.68Q355.32-3.08 357.36-3.08L357.36-3.08Q362.40-3.08 362.40-5.96L362.40-5.96Q362.40-6.92 361.72-7.48Q361.04-8.04 360.02-8.30Q359.00-8.56 357.12-8.88L357.12-8.88Q354.56-9.28 352.94-9.80Q351.32-10.32 350.16-11.56Q349.00-12.80 349.00-15.04L349.00-15.04Q349.00-17.92 351.40-19.66Q353.80-21.40 357.84-21.40L357.84-21.40Q359.96-21.40 362.08-20.88Q364.20-20.36 365.56-19.48L365.56-19.48L363.92-16.44Q361.32-18.12 357.80-18.12L357.80-18.12Q355.36-18.12 354.08-17.32Q352.80-16.52 352.80-15.20L352.80-15.20Q352.80-14.16 353.52-13.56Q354.24-12.96 355.30-12.68Q356.36-12.40 358.28-12.04L358.28-12.04Q360.84-11.60 362.42-11.10Q364.00-10.60 365.12-9.40Q366.24-8.20 366.24-6.04L366.24-6.04Q366.24-3.16 363.78-1.46Q361.32 0.24 357.08 0.24L357.08 0.24Z"/></g>
</svg>
</g></svg>